PathFileType	4	(X/Y/Z)	c:\Git\1_current_projects\powerlifing_model\simulations\Athlete_03\22_07_06\dl_70_test\markers_experimental.trc
DataRate	CameraRate	NumFrames	NumMarkers	Units	OrigDataRate	OrigDataStartFrame	OrigNumFrames
200.000000	200.000000	4	59	mm	200.000000	1756	2810
Frame#	Time	BL			BR			GLAB			RFHD			LFHD			C7			T6			SPINMOL			SPINM2			SPINM3			BELTOL			BELT2			BELT3			SACROL			SACR2			SACR3			LTHOL			LTH2			LTH3			LSHAOL			LSHA2			LSHA3			LHEE			LTOE			LM5			RTHOL			RTH2			RTH3			RSHAOL			RSHA2			RSHA3			RHEE			RTOE			RM5			STRN			XIPH			LACR			LUAOL			LUA2			LUA3			LLAOL			LLA2			LLA3			LWRU			RACR			RUAOL			RUA2			RUA3			RLAOL			RLA2			RLA3			RWRU			T12			USERMO0			USERMO1			USERMO2			USERMO3			USERMO4			USERMO5			
		X1	Y1	Z1	X2	Y2	Z2	X3	Y3	Z3	X4	Y4	Z4	X5	Y5	Z5	X6	Y6	Z6	X7	Y7	Z7	X8	Y8	Z8	X9	Y9	Z9	X10	Y10	Z10	X11	Y11	Z11	X12	Y12	Z12	X13	Y13	Z13	X14	Y14	Z14	X15	Y15	Z15	X16	Y16	Z16	X17	Y17	Z17	X18	Y18	Z18	X19	Y19	Z19	X20	Y20	Z20	X21	Y21	Z21	X22	Y22	Z22	X23	Y23	Z23	X24	Y24	Z24	X25	Y25	Z25	X26	Y26	Z26	X27	Y27	Z27	X28	Y28	Z28	X29	Y29	Z29	X30	Y30	Z30	X31	Y31	Z31	X32	Y32	Z32	X33	Y33	Z33	X34	Y34	Z34	X35	Y35	Z35	X36	Y36	Z36	X37	Y37	Z37	X38	Y38	Z38	X39	Y39	Z39	X40	Y40	Z40	X41	Y41	Z41	X42	Y42	Z42	X43	Y43	Z43	X44	Y44	Z44	X45	Y45	Z45	X46	Y46	Z46	X47	Y47	Z47	X48	Y48	Z48	X49	Y49	Z49	X50	Y50	Z50	X51	Y51	Z51	X52	Y52	Z52	X53	Y53	Z53	X54	Y54	Z54	X55	Y55	Z55	X56	Y56	Z56	X57	Y57	Z57	X58	Y58	Z58	X59	Y59	Z59	

1757	8.779999999999999	181.8948059082032	617.0305175781251	-2305.115966796875	221.8299865722657	673.1293945312501	-83.78308868408205	394.6722412109376	1475.742797851563	-1168.97119140625	348.3923034667969	1523.924926757813	-1095.64013671875	357.2160034179688	1519.696655273438	-1253.5302734375	140.4417419433594	1460.830078125	-1184.412109375	27.56713104248048	1282.824462890625	-1189.838012695313	16.67529296875	1257.750366210938	-1194.63232421875	-11.80963230133057	1207.174438476563	-1139.950805664063	-5.522443294525147	1200.311401367188	-1188.498291015625	-37.44212722778321	1152.969970703125	-1187.232299804688	-58.008358001709	1096.275024414063	-1134.824951171875	-61.22459030151369	1095.515747070313	-1184.820434570313	-75.63987731933595	1001.9560546875	-1208.685180664063	-65.80018615722658	1009.621704101563	-1158.850463867188	-104.7405395507813	957.278747558594	-1169.23876953125	61.62095260620119	760.3930053710939	-1403.99072265625	26.69924545288087	691.2296142578126	-1384.037963867188	72.8183059692383	699.4862060546876	-1402.79541015625	74.76194763183595	347.7098999023438	-1410.907104492188	41.71763610839844	276.9186401367188	-1399.728881835938	88.41697692871095	287.1157836914063	-1408.351928710938	27.44687080383301	66.06858825683595	-1331.78466796875	237.6353607177735	71.55123901367189	-1339.886352539063	194.0260314941407	57.39392471313478	-1446.692504882813	56.1250686645508	729.7938842773439	-970.8013305664065	103.1011428833008	667.0868530273439	-955.6428222656252	57.48838424682619	667.6851806640626	-976.207214355469	56.16113662719728	337.7045593261719	-972.8874511718752	104.0246200561524	274.1040039062501	-973.7177734375002	54.91432952880861	277.3772277832032	-984.016540527344	27.644437789917	64.44931030273439	-1069.68701171875	237.9773406982422	65.61418914794923	-1054.844360351563	195.3570709228516	67.96448516845705	-955.4423828125002	261.7670593261719	1340.925903320313	-1186.6640625	285.5328674316407	1186.558471679688	-1180.87158203125	197.3842010498047	1348.17236328125	-1395.559692382813	203.2769012451172	1198.739624023438	-1453.2001953125	183.1962280273438	1137.350952148438	-1467.111328125	232.6251373291016	1140.519653320313	-1451.57080078125	243.8895568847657	910.2567138671877	-1438.403930664063	227.8178405761719	848.0068359375002	-1449.77978515625	256.6181640625001	854.231140136719	-1409.643188476563	239.7008209228516	756.6734619140626	-1427.871948242188	198.2619323730469	1353.174194335938	-982.0783691406252	221.0755157470704	1170.138061523438	-941.0083007812502	246.6271667480469	1116.1611328125	-969.111999511719	221.3880920410157	1105.03857421875	-926.8565063476565	244.2669982910157	903.7642211914065	-945.9739379882815	253.4145050048829	850.4738769531252	-981.1687011718752	239.0779266357422	841.1946411132815	-932.875427246094	236.6911163330079	764.0088500976564	-936.0090942382815	-5.784011840820313	1164.673706054688	-1185.999267578125	0.07486610114574434	0.02899649925529958	-0.1151890009641648	0.08960519731044771	0.2149789929389954	-0.1492999941110611	0.08097250014543535	0.03412710130214692	-0.09128169715404512	0.100992999970913	0.1570229977369309	-0.7358999848365785	0.3203139901161194	2.778529882431031	-0.3269389867782593	2.859270095825196	0	0	
1758	8.785	182.3392181396485	619.4320068359376	-2305.10498046875	222.1081542968751	675.2394409179689	-83.76376342773439	390.9571228027345	1477.13623046875	-1168.824462890625	344.7812805175782	1525.466796875	-1095.507446289063	353.6654052734376	1521.173828125	-1253.412231445313	136.5379638671875	1462.369262695313	-1184.398071289063	25.27800369262696	1282.744262695313	-1189.953125	14.71995449066162	1257.564086914063	-1194.787841796875	-13.25221920013428	1206.68994140625	-1140.122924804688	-6.809013366699221	1199.875610351563	-1188.65234375	-38.03328704833985	1152.276489257813	-1187.381591796875	-58.0209426879883	1095.376953125	-1134.968017578125	-61.20516967773439	1094.574829101563	-1184.969848632813	-74.67931365966798	1001.374389648438	-1208.8134765625	-64.86280059814455	1009.081665039063	-1158.9951171875	-103.6638946533203	956.6367797851565	-1169.375854492188	63.0482635498047	760.4846801757814	-1403.835571289063	27.9085865020752	691.4193115234376	-1383.934814453125	74.09729766845705	699.5534057617189	-1402.56591796875	75.21819305419923	347.7705993652344	-1410.745727539063	42.05723953247071	277.0153198242188	-1399.6669921875	88.80586242675783	287.1486816406251	-1408.223999023438	27.44735336303712	66.04489135742189	-1331.80859375	237.6351928710938	71.56777954101564	-1339.86474609375	194.0347595214844	57.402645111084	-1446.687255859375	56.90291976928712	730.0369262695314	-971.0222167968752	103.6168823242188	667.1134033203126	-955.9425048828127	57.99803161621095	667.9259643554689	-976.4960937500002	55.93922424316408	337.7492980957032	-973.224792480469	103.7907867431641	274.1629028320313	-973.9083251953127	54.71622848510744	277.4142456054688	-984.2898559570315	27.66877555847169	64.40831756591798	-1069.733642578125	237.9724426269532	65.62242889404298	-1054.828735351563	195.3551025390626	67.97692871093751	-955.4312744140627	258.8195800781251	1343.527099609375	-1186.69677734375	284.1721496582032	1189.558959960938	-1180.930419921875	193.8279266357422	1350.290649414063	-1395.677856445313	200.4620361328126	1200.792114257813	-1453.51708984375	180.6188201904297	1139.315307617188	-1467.304077148438	230.1008453369141	1142.733154296875	-1451.960571289063	242.9190826416016	912.5806884765627	-1438.703125	227.1463470458985	850.2471313476565	-1450.006225585938	256.0362548828126	856.6501464843752	-1409.949951171875	239.6043701171876	758.9876098632814	-1428.045288085938	194.7288513183594	1355.252563476563	-981.9757080078127	218.5605163574219	1172.231323242188	-940.5457153320315	244.6796569824219	1118.441162109375	-968.4531860351565	219.1729125976563	1107.13623046875	-926.3802490234377	243.4059600830079	906.0034179687502	-945.6846923828127	253.0049438476563	852.7894287109377	-980.8743286132815	238.4821777343751	843.3972778320315	-932.6589965820315	236.5764770507813	766.2012939453126	-935.8980102539065	-6.491453647613527	1164.328369140625	-1186.10693359375	0.07539640367031099	0.0286410003900528	-0.1163519993424416	0.07922150194644929	0.2112970054149628	-0.1473460048437119	0.07898999750614168	0.03100759908556939	-0.08868589997291566	0.1054100021719933	0.1580870002508164	-0.7407199740409852	0.3220199942588807	2.778310060501099	-0.3241220116615296	2.859479904174805	0	0	
1759	8.790000000000001	182.7818908691407	621.7820434570314	-2305.094970703125	222.3815917968751	677.2833251953126	-83.74246215820314	387.2114257812501	1478.460571289063	-1168.696899414063	341.1483459472657	1526.940673828125	-1095.387573242188	350.0758972167969	1522.5810546875	-1253.308471679688	132.6077423095703	1463.849487304688	-1184.376708984375	22.99517059326172	1282.599731445313	-1190.057739257813	12.77206802368164	1257.319458007813	-1194.933471679688	-14.67687797546387	1206.144165039063	-1140.286865234375	-8.078927993774416	1199.387451171875	-1188.801147460938	-38.60321426391602	1151.541625976563	-1187.526611328125	-58.00011444091798	1094.440063476563	-1135.106689453125	-61.15942382812501	1093.59814453125	-1185.115112304688	-73.70422363281251	1000.766052246094	-1208.93310546875	-63.90317916870119	1008.509521484375	-1159.136596679688	-102.562126159668	955.9617919921877	-1169.5087890625	64.47383880615236	760.5664062500001	-1403.6962890625	29.11992835998536	691.6000366210939	-1383.83984375	75.3745803833008	699.6115722656251	-1402.35107421875	75.67185974121095	347.8249816894532	-1410.585205078125	42.39355850219727	277.1062011718751	-1399.603271484375	89.20022583007814	287.1740722656251	-1408.092407226563	27.44674301147462	66.01674652099611	-1331.835083007813	237.6338958740235	71.58418273925783	-1339.844482421875	194.0436248779297	57.41172409057619	-1446.682373046875	57.74685668945314	730.2724609375001	-971.2551269531252	104.2150192260742	667.1348266601564	-956.2707519531252	58.57147598266603	668.1591796875001	-976.788024902344	55.76684570312501	337.7984313964844	-973.569030761719	103.5922622680664	274.2173156738282	-974.1035766601565	54.5514373779297	277.4550781250001	-984.5648193359377	27.69299507141114	64.36833953857423	-1069.780639648438	237.9673156738282	65.62927246093751	-1054.81396484375	195.3540191650391	67.99008178710939	-955.4214477539065	255.8363189697266	1346.08251953125	-1186.7333984375	282.7959899902344	1192.533569335938	-1181.00439453125	190.2097625732422	1352.344116210938	-1395.79833984375	197.5673980712891	1202.780029296875	-1453.84375	177.9576568603516	1141.215698242188	-1467.490234375	227.4948425292969	1144.881469726563	-1452.366333007813	241.8994750976563	914.8535766601565	-1439.013916015625	226.4360809326172	852.4375000000002	-1450.24267578125	255.4188842773438	859.0252685546877	-1410.271362304688	239.4866485595704	761.2562866210939	-1428.224975585938	191.1521606445313	1357.261108398438	-981.8656005859377	215.9863586425782	1174.244750976563	-940.0813598632815	242.6848754882813	1120.649047851563	-967.778747558594	216.8919372558594	1109.157348632813	-925.902282714844	242.5137329101563	908.1860961914065	-945.390075683594	252.5779876708985	855.0520019531252	-980.569763183594	237.8561553955079	845.545349121094	-932.4370727539065	236.4449768066407	768.3421630859377	-935.7852172851565	-7.185913085937502	1163.946411132813	-1186.209228515625	0.07563780248165132	0.02797709964215756	-0.117466002702713	0.07020299881696702	0.2078000009059907	-0.1458439975976944	0.07664970308542253	0.02816930040717126	-0.08646299690008165	0.1103639975190163	0.1597220003604889	-0.7456589937210084	0.3248949944972992	2.778059959411622	-0.3213090002536774	2.859639883041382	0	0	
1760	8.795	183.2214050292969	624.0788574218751	-2305.086181640625	222.6487884521485	679.2591552734376	-83.71922302246095	383.4389038085938	1479.71875	-1168.5869140625	337.4963989257813	1528.347534179688	-1095.278930664063	346.4510803222657	1523.921997070313	-1253.216552734375	128.6565399169922	1465.271118164063	-1184.346923828125	20.72276306152344	1282.393432617188	-1190.150024414063	10.83512306213379	1257.018920898438	-1195.067749023438	-16.08012199401856	1205.539916992188	-1140.440795898438	-9.328769683837892	1198.850219726563	-1188.943359375	-39.14977645874024	1150.768310546875	-1187.666381835938	-57.94333267211915	1093.467529296875	-1135.239868164063	-61.08566284179689	1092.5888671875	-1185.25537109375	-72.71313476562501	1000.135314941406	-1209.044799804688	-62.91984176635744	1007.909851074219	-1159.274658203125	-101.433837890625	955.2576904296877	-1169.637573242188	65.89366149902345	760.6406860351564	-1403.573608398438	30.32902336120606	691.7744750976564	-1383.752685546875	76.64537048339845	699.6630859375001	-1402.152465820313	76.11788177490236	347.8742065429688	-1410.424560546875	42.7226905822754	277.1920471191407	-1399.535888671875	89.59587860107423	287.1934814453126	-1407.95654296875	27.44553565979005	65.98545074462892	-1331.86279296875	237.6317443847657	71.6001434326172	-1339.825317382813	194.0524291992188	57.4211769104004	-1446.677856445313	58.65750885009767	730.5027465820314	-971.499694824219	104.8955307006836	667.1528930664064	-956.6260986328127	59.20872879028322	668.3869628906251	-977.082214355469	55.64514923095705	337.8539123535157	-973.917419433594	103.4319763183594	274.2694702148438	-974.3026123046877	54.42273712158205	277.5014648437501	-984.8398437500002	27.71747779846192	64.33135986328126	-1069.827270507813	237.9622802734376	65.63449859619142	-1054.800170898438	195.3540039062501	68.00374603271486	-955.4132080078127	252.8211975097657	1348.59130859375	-1186.773559570313	281.4066162109376	1195.481201171875	-1181.09423828125	186.532943725586	1354.331787109375	-1395.919555664063	194.5979766845704	1204.701904296875	-1454.176879882813	175.2179565429688	1143.05126953125	-1467.6669921875	224.8115234375001	1146.962646484375	-1452.7841796875	240.8322448730469	917.0747680664065	-1439.33447265625	225.6887512207032	854.5765380859377	-1450.486083984375	254.7678527832032	861.3553466796877	-1410.605102539063	239.3491821289063	763.4784545898439	-1428.408935546875	187.53759765625	1359.199096679688	-981.747497558594	213.359359741211	1176.177490234375	-939.6186523437502	240.6478271484376	1122.784057617188	-967.0933227539065	214.5515747070313	1111.1005859375	-925.427185058594	241.593246459961	910.310974121094	-945.0927734375002	252.1348114013672	857.2600097656252	-980.257507324219	237.2022552490235	847.6377563476565	-932.211608886719	236.2973937988282	770.4301757812502	-935.6717529296877	-7.869135379791262	1163.531372070313	-1186.305053710938	0.07563939690589906	0.02706200070679188	-0.1184870004653931	0.06258559972047807	0.2045509964227677	-0.1445370018482209	0.0739933028817177	0.0256900005042553	-0.08462200313806535	0.1154230013489723	0.1618860065937043	-0.7504310011863711	0.3286679983139039	2.777839899063111	-0.3186559975147248	2.859760046005249	0	0	
